<?xml version="1.0" encoding="utf-8"?>
<!-- Generator: Adobe Illustrator 23.0.1, SVG Export Plug-In . SVG Version: 6.00 Build 0)  -->
<svg version="1.1" id="Layer_1" xmlns="http://www.w3.org/2000/svg" xmlns:xlink="http://www.w3.org/1999/xlink" x="0px" y="0px"
	 viewBox="0 0 512 512" style="enable-background:new 0 0 512 512;" xml:space="preserve">
<style type="text/css">
	.st0{fill-rule:evenodd;clip-rule:evenodd;fill:#838383;}
	.st1{fill-rule:evenodd;clip-rule:evenodd;fill:#595959;}
	.st2{fill-rule:evenodd;clip-rule:evenodd;fill:#ECECEC;}
	.st3{fill-rule:evenodd;clip-rule:evenodd;fill:#A6E7F0;}
	.st4{fill-rule:evenodd;clip-rule:evenodd;fill:#6BD9E7;}
	.st5{fill-rule:evenodd;clip-rule:evenodd;fill:#03BED7;}
	.st6{fill-rule:evenodd;clip-rule:evenodd;fill:#0099B1;}
	.st7{fill-rule:evenodd;clip-rule:evenodd;fill:#CECECE;}
	.st8{fill:#CAF8FF;stroke:#AFAFAF;stroke-width:6;stroke-miterlimit:10;}
	.st9{fill:#78FF5C;}
</style>
<g>
	<path class="st0" d="M274.4,390.9l-17.8-12.6l-18.9,12.6v55l18.8,14.7l17.9-14.7V390.9z"/>
	<path class="st1" d="M256,390.9h18.4v55H256V390.9z"/>
	<path class="st0" d="M446.7,390.9l-17.8-12.6L410,390.9v55l18.9,17l17.8-17V390.9z"/>
	<path class="st1" d="M428.4,390.9h18.3v55h-18.3V390.9z"/>
	<path class="st0" d="M102,390.9l-17.8-12.6l-18.9,12.6v55l18.3,15.8l18.4-15.8V390.9z"/>
	<path class="st2" d="M434.6,445.8h-165h-29.8H72.2H42.4H20.7c-6.8,0-12.4,5.6-12.4,12.4v18.5c0,6.8,5.5,12.4,12.4,12.4H486
		c6.8,0,12.4-5.6,12.4-12.4v-18.5c0-6.8-5.5-12.4-12.4-12.4h-21.6H434.6z"/>
	<path class="st3" d="M128.6,215.8h-90c-9.1,0-16.5,8.3-16.5,18.4v113.2l64.2,24.4l58.9-24.4V234.2
		C145.1,224.1,137.7,215.8,128.6,215.8z"/>
	<path class="st1" d="M83.6,390.9H102v55H83.6V390.9z"/>
	<path class="st4" d="M128,215.8h-24.4c9.1,0.1,16.4,8.3,16.4,18.4v113.2h25.2V234.2c0-6.3-2.9-11.9-7.3-15.2
		c-2.6-2-5.8-3.2-9.2-3.2L128,215.8L128,215.8z"/>
	<path class="st3" d="M301,215.8h-90c-9.1,0-16.5,8.3-16.5,18.4v113.2l64.2,24.4l58.8-24.4V234.2C317.5,224.1,310.1,215.8,301,215.8
		z"/>
	<path class="st4" d="M300.3,215.8h-24.4c9,0.1,16.4,8.3,16.4,18.4v113.2h25.2V234.2c0-6.3-2.9-11.9-7.3-15.2
		c-2.6-2-5.8-3.2-9.2-3.2L300.3,215.8L300.3,215.8z"/>
	<path class="st3" d="M473.4,215.8h-90c-9.1,0-16.5,8.3-16.5,18.4v113.2l64.2,24.4l58.8-24.4V234.2
		C489.9,224.1,482.4,215.8,473.4,215.8z"/>
	<path class="st4" d="M472.7,215.8h-24.4c9,0.1,16.4,8.3,16.4,18.4v113.2h25.2V234.2c0-6.3-2.9-11.9-7.3-15.2
		c-2.6-2-5.8-3.2-9.2-3.2h-0.6L472.7,215.8z"/>
	<path class="st5" d="M13.7,347.4h484.5c7.5,0,13.7,6.2,13.7,13.7v16c0,7.6-6.2,13.7-13.7,13.7H13.7c-7.6,0-13.7-6.2-13.7-13.7v-16
		C0,353.6,6.2,347.4,13.7,347.4L13.7,347.4z"/>
	<path class="st6" d="M498.3,347.4h-8.4h-25.1c4.6,0,8.6,2.3,11.1,5.8c1.6,2.2,2.5,5,2.5,7.9v16c0,7.6-6.2,13.7-13.7,13.7h33.6
		c2.1,0,4.1-0.5,5.9-1.3c4.6-2.2,7.8-7,7.8-12.4v-16c0-5.4-3.2-10.2-7.8-12.4C502.4,347.9,500.4,347.4,498.3,347.4L498.3,347.4z"/>
	<path class="st7" d="M486,445.8h-21.6h-11.6c6.8,0,12.4,5.6,12.4,12.4v18.5c0,6.8-5.6,12.4-12.4,12.4H486c6.8,0,12.4-5.6,12.4-12.4
		v-18.5C498.4,451.4,492.8,445.8,486,445.8L486,445.8z"/>
</g>
<path class="st8" d="M423.9,198H88.1c-16,0-28.9-13-28.9-28.9V97.9c0-16,13-28.9,28.9-28.9h335.8c16,0,28.9,13,28.9,28.9v71.1
	C452.9,185,439.9,198,423.9,198z"/>
<path class="st9" d="M359.8,167.5c-7.6,0-14.7,1.7-21.1,4.8c-8.1-24.3-30.9-41.8-57.9-41.8c-26.9,0-49.7,17.4-57.8,41.5
	c-8.8-9.5-21.3-15.5-35.3-15.5c-15.6,0-29.4,7.4-38.1,18.9c-5-4.9-11.8-7.9-19.3-7.9c-15.2,0-27.5,12.3-27.5,27.5h301
	C395.9,178.7,379.2,167.5,359.8,167.5z"/>
</svg>
