<?xml version="1.0" encoding="utf-8"?>
<!-- Generator: Adobe Illustrator 23.0.1, SVG Export Plug-In . SVG Version: 6.00 Build 0)  -->
<svg version="1.1" id="Layer_1" xmlns="http://www.w3.org/2000/svg" xmlns:xlink="http://www.w3.org/1999/xlink" x="0px" y="0px"
	 viewBox="0 0 512 512" style="enable-background:new 0 0 512 512;" xml:space="preserve">
<style type="text/css">
	.st0{fill:#C7C7C5;}
	.st1{fill:#D6D6D4;}
	.st2{fill:#BFBFBD;}
	.st3{fill:#348FD9;}
	.st4{fill:#2D7DBF;}
	.st5{fill:#4DB7E5;}
	.st6{fill:#00C100;}
</style>
<path class="st0" d="M184,344l-16,64h-56c-8.8,0-16,7.2-16,16s7.2,16,16,16h80l24-96H184z"/>
<path class="st1" d="M112,408h104l0,0v32l0,0H112c-8.8,0-16-7.2-16-16S103.2,408,112,408z"/>
<path class="st0" d="M288,344l-16,64h-56c-8.8,0-16,7.2-16,16s7.2,16,16,16h80l24-96H288z"/>
<path class="st1" d="M216,408h112l0,0v32l0,0H216c-8.8,0-16-7.2-16-16S207.2,408,216,408z"/>
<path class="st0" d="M392,344l-16,64h-56c-8.8,0-16,7.2-16,16s7.2,16,16,16h80l24-96H392z"/>
<g>
	<path class="st2" d="M184,344l-8,32h32l8-32H184z"/>
	<path class="st2" d="M288,344l-8,32h32l8-32H288z"/>
	<path class="st2" d="M424,344h-32l-8,32h32L424,344z"/>
</g>
<path class="st3" d="M16,432h480v16H16V432z"/>
<path class="st1" d="M104,248h64c8.8,0,16,7.2,16,16c0,8.8-7.2,16-16,16H88l0,0v-16C88,255.2,95.2,248,104,248z"/>
<path class="st0" d="M168,280h-48v-16c0-8.8,7.2-16,16-16h32c8.8,0,16,7.2,16,16C184,272.8,176.8,280,168,280z"/>
<path class="st3" d="M314.6,120H204.2c-7.8,0-15.3,3.1-20.8,8.6c-9.8,9.8-15,23.3-14.2,37.1l1,18.3l-27.5,128H49.4
	c-13,0-24.6,9.7-25.3,22.7c-0.7,13.2,9.4,24.5,22.7,25.3c0.4,0,0.9,0,1.3,0h238.4c9.3,0,17.3-6.6,19.1-15.7l37.8-189.2
	c3.2-15.9-7.1-31.4-23-34.6C318.5,120.2,316.5,120,314.6,120z"/>
<path class="st4" d="M200,176h68.2c4.4,0,8,3.6,8,8l0,0c0,4.4-3.6,8-8,8H200c-4.4,0-8-3.6-8-8l0,0C192,179.6,195.6,176,200,176z"/>
<path class="st4" d="M293.8,128.6c-9.8,9.8-15,23.3-14.2,37.1l1,18.3l-27.5,128h-94.8c-13.3,0-24,10.7-24,24s10.7,24,24,24h128
	c9.3,0,17.3-6.6,19.1-15.7l37.8-189.2c3.2-15.9-7.1-31.4-23-34.6c-1.9-0.4-3.8-0.6-5.8-0.6C306.8,120,299.4,123.1,293.8,128.6z"/>
<path class="st1" d="M216,248h64c8.8,0,16,7.2,16,16c0,8.8-7.2,16-16,16h-80l0,0v-16C200,255.2,207.2,248,216,248z"/>
<path class="st0" d="M280,280h-48v-16c0-8.8,7.2-16,16-16h32c8.8,0,16,7.2,16,16C296,272.8,288.8,280,280,280z"/>
<path class="st3" d="M458.6,120H348.2c-7.8,0-15.3,3.1-20.8,8.6c-9.8,9.8-15,23.3-14.2,37.1l1,18.3l-27.5,128h-93.4
	c-13,0-24.6,9.7-25.3,22.7c-0.7,13.2,9.4,24.5,22.7,25.3c0.4,0,0.9,0,1.3,0h238.4c9.3,0,17.3-6.6,19.1-15.7l37.8-189.2
	c3.2-15.9-7.1-31.4-23-34.6C462.5,120.2,460.5,120,458.6,120L458.6,120z"/>
<path class="st4" d="M344,176h68.2c4.4,0,8,3.6,8,8l0,0c0,4.4-3.6,8-8,8H344c-4.4,0-8-3.6-8-8l0,0C336,179.6,339.6,176,344,176z"/>
<path class="st4" d="M437.8,128.6c-9.8,9.8-15,23.3-14.2,37.1l1,18.3l-27.5,128h-94.8c-13.3,0-24,10.7-24,24s10.7,24,24,24h128
	c9.3,0,17.3-6.6,19.1-15.7l37.8-189.2c3.2-15.9-7.1-31.4-23-34.6c-1.9-0.4-3.8-0.6-5.8-0.6C450.8,120,443.4,123.1,437.8,128.6
	L437.8,128.6z"/>
<path class="st1" d="M360,248h64c8.8,0,16,7.2,16,16c0,8.8-7.2,16-16,16h-80l0,0v-16C344,255.2,351.2,248,360,248z"/>
<path class="st0" d="M424,280h-48v-16c0-8.8,7.2-16,16-16h32c8.8,0,16,7.2,16,16C440,272.8,432.8,280,424,280z"/>
<path class="st5" d="M72,72h32c17.7,0,32,14.3,32,32v80c0,17.7-14.3,32-32,32H72c-17.7,0-32-14.3-32-32v-80C40,86.3,54.3,72,72,72z"
	/>
<path class="st1" d="M104,72H72c-17.7,0-32,14.3-32,32h96C136,86.3,121.7,72,104,72z"/>
<path class="st6" d="M133.6,153c-9,0-17,4.5-21.8,11.4c-2.4-1.5-5.3-2.4-8.3-2.4c-8.8,0-16,7.2-16,16c0,3.8,1.3,7.2,3.5,9.9
	c-2.9,2-5.4,4.4-7.4,7.3c-5-7.4-13.5-12.2-23.1-12.2c-7.8,0-14.8,3.2-19.9,8.3C44.2,205,56.7,215,71.5,215h32c17.7,0,32-14.3,32-32
	v-29.9C134.8,153,134.2,153,133.6,153z"/>
</svg>
