<?xml version="1.0" encoding="utf-8"?>
<!-- Generator: Adobe Illustrator 23.0.1, SVG Export Plug-In . SVG Version: 6.00 Build 0)  -->
<svg version="1.1" id="Layer_1" xmlns="http://www.w3.org/2000/svg" xmlns:xlink="http://www.w3.org/1999/xlink" x="0px" y="0px"
	 viewBox="0 0 512 512" style="enable-background:new 0 0 512 512;" xml:space="preserve">
<style type="text/css">
	.st0{fill:#D6D6D4;}
	.st1{fill:#C7C7C5;}
	.st2{fill:#348FD9;}
	.st3{fill:#E0E0DE;}
	.st4{fill:#2D7DBF;}
	.st5{fill:#4DB7E5;}
	.st6{fill:#CFCFCD;}
	.st7{fill:#00C100;}
</style>
<path class="st0" d="M152,248h92c11,0,20,9,20,20s-9,20-20,20H136l0,0v-24C136,255.2,143.2,248,152,248z"/>
<path class="st1" d="M192,248h52c11,0,20,9,20,20s-9,20-20,20h-68l0,0v-24C176,255.2,183.2,248,192,248z"/>
<path class="st2" d="M433,88c0,0-0.1,0-0.1,0v0H288.6v0c-10.3,0-20.2,4.1-27.4,11.4c-13.1,13-19.5,31.3-17.5,49.6l2,18.5L208.4,328
	H88.1c-17.7,0-32,14.3-32,32s14.3,32,32,32h289.8c22.7,0,42.4-15.9,47.1-38.1l46.2-219c4.4-21-9.1-41.6-30.1-46
	C438.4,88.3,435.7,88,433,88L433,88z"/>
<path class="st0" d="M201,392l-16,56h-68c-11,0-20,9-20,20s9,20,20,20h100l24-96H201z"/>
<path class="st3" d="M273,488H117c-11,0-20-9-20-20s9-20,20-20h156V488z"/>
<path class="st3" d="M345,392l-16,56h-68c-11,0-20,9-20,20s9,20,20,20h100l24-96H345z"/>
<path class="st4" d="M281,160h104c4.4,0,8,3.6,8,8l0,0c0,4.4-3.6,8-8,8H281c-4.4,0-8-3.6-8-8l0,0C273,163.6,276.6,160,281,160z"/>
<path class="st4" d="M389.9,167.5l-2-18.5c-2-18.3,4.5-36.6,17.5-49.6C412.7,92.1,422.6,88,433,88c21.5-0.1,38.9,17.3,39,38.8
	c0,2.7-0.3,5.4-0.8,8.1l-46.3,219c-4.7,22.2-24.4,38.1-47.1,38.1H232.1c-17.7,0-32.1-14.3-32.1-32c0,0,0,0,0,0
	c0-17.7,14.4-32,32.1-32c0,0,0,0,0,0h120.5L389.9,167.5z"/>
<path class="st0" d="M296,248h92c11,0,20,9,20,20s-9,20-20,20H280l0,0v-24C280,255.2,287.2,248,296,248z"/>
<path class="st1" d="M336,248h52c11,0,20,9,20,20s-9,20-20,20h-68l0,0v-24C320,255.2,327.2,248,336,248z"/>
<path class="st0" d="M16,480h480v16H16V480z"/>
<path class="st5" d="M80,24h48c22.1,0,40,17.9,40,40v112c0,22.1-17.9,40-40,40H80c-22.1,0-40-17.9-40-40V64C40,41.9,57.9,24,80,24z"
	/>
<path class="st0" d="M136,176V64c0-22.1-17.9-40-40-40l0,0h32c22.1,0,40,17.9,40,40l0,0v112c0,22.1-17.9,40-40,40l0,0H96
	C118.1,216,136,198.1,136,176L136,176z"/>
<path class="st3" d="M128,24H80c-22.1,0-40,17.9-40,40h128C168,41.9,150.1,24,128,24z"/>
<path class="st6" d="M136,64h32v16h-32V64z"/>
<path class="st6" d="M201,392l-4.6,16H237l4-16H201z"/>
<path class="st0" d="M385,392h-40l-4.6,16H381L385,392z"/>
<path class="st7" d="M78.7,141.8c0.2-1.4,0.3-2.8,0.3-4.2c0-17.4-14.1-31.5-31.5-31.5c-2.6,0-5.1,0.3-7.5,0.9v61.2
	c0.1,0,0.2,0.1,0.4,0.1c-0.1,0.4-0.1,0.8-0.2,1.3c-0.1,0-0.1,0-0.2,0v7.5c0,18.9,13.1,34.7,30.7,38.9c1.6-3.3,2.7-7,3.1-10.9
	c16.8-0.9,30.2-14.9,30.2-31.9C104,157.7,93.2,144.9,78.7,141.8z"/>
</svg>
